<?xml version="1.0" encoding="utf-8"?>
<!-- Generator: Adobe Illustrator 18.0.0, SVG Export Plug-In . SVG Version: 6.00 Build 0)  -->
<!DOCTYPE svg PUBLIC "-//W3C//DTD SVG 1.1//EN" "http://www.w3.org/Graphics/SVG/1.1/DTD/svg11.dtd">
<svg version="1.1" id="Layer_1" xmlns="http://www.w3.org/2000/svg" xmlns:xlink="http://www.w3.org/1999/xlink" x="0px" y="0px"
	 viewBox="0 0 800 480" enable-background="new 0 0 800 480" xml:space="preserve">
<g>
	<g>
		<g>
			<path fill="#282829" d="M297.7,233.6c0,19.6-8.7,31.2-29.2,31.2c-7.8,0-16.7-1.1-23.6-2.5v59.4l-22.1,8v-155h17.6l2.2,7.4
				c7.8-5.6,16.9-9.3,27.9-9.3c17.8,0,27.2,10.5,27.2,30.7V233.6z M244.9,243.6c5.8,1.3,13.2,2.4,19.6,2.4c8,0,11.1-3.8,11.1-11.8
				v-31.2c0-7.3-2.7-11.2-10.9-11.2c-7.3,0-15.1,3.6-19.8,8V243.6z"/>
			<path fill="#282829" d="M354.8,246.7c8.5,0,17.4-1.3,27-4.2l3.4,16.7c-10,3.8-21.9,5.6-32.5,5.6c-27.8,0-37.4-12.9-37.4-34.1
				v-23.4c0-18.7,8.3-34.5,36.6-34.5s34.6,16.5,34.6,35.5v18.9h-49.2v4.5C337.6,242.5,341.4,246.7,354.8,246.7z M337.6,209.5h28.1
				v-4.4c0-8.3-2.5-14.1-13.4-14.1s-14.7,5.8-14.7,14.1V209.5z"/>
			<path fill="#282829" d="M453.7,261.3c-4.7,2-13.8,3.4-19.4,3.4c-16.1,0-24.3-7.6-24.3-23.4v-49.2h-13.2v-17.6H410v-21.9l22.1-3.1
				v25h22.7l-1.5,17.6h-21.2v46.2c0,4.7,2.2,7.8,8,7.8c3.3,0,7.3-0.7,11.1-1.8L453.7,261.3z"/>
			<path fill="#E7314F" d="M467.1,230.9v-24.1c0-23.8,10.3-33.9,38.1-33.9c6.2,0,15.1,1.1,21.6,3.3l-2.7,18.1
				c-6-1.6-14-2.4-18.3-2.4c-12.7,0-16.5,3.8-16.5,14.7v24.5c0,10.9,3.8,14.7,16.5,14.7c5.6,0,12-0.7,18.3-2.4l2.7,18.1
				c-5.8,2-14.3,3.3-21.6,3.3C477.4,264.8,467.1,254.6,467.1,230.9z"/>
			<path fill="#E7314F" d="M576.5,264.8c-30.3,0-38.5-16.7-38.5-34.8v-22.3c0-18.1,8.2-34.8,38.5-34.8c30.3,0,38.4,16.7,38.4,34.8
				V230C614.9,248.1,606.7,264.8,576.5,264.8z M576.5,191.7c-11.8,0-16.3,5.3-16.3,15.2v23.8c0,10,4.5,15.2,16.3,15.2
				c11.8,0,16.3-5.3,16.3-15.2v-23.8C592.8,197,588.3,191.7,576.5,191.7z"/>
			<path fill="#E7314F" d="M684.9,263v-61.7c0-4.7-2-7.1-7.1-7.1c-5.4,0-15.1,3.3-23,7.4V263h-22.1v-88.3h16.9l2.2,7.4
				c11.1-5.4,25-9.3,35.4-9.3c8.5,0,13.8,3.4,16.7,9.4c10.7-5.4,24.8-9.4,35.5-9.4c14.7,0,20,10.3,20,26.1v64h-22.1v-61.7
				c0-4.7-2-7.1-7.1-7.1c-5.4,0-16.1,3.4-23,7.4V263H684.9z"/>
		</g>
	</g>
	<path fill="#E7314F" d="M139.9,310.6c-38.8-85.8-0.8-186.8,85-225.6c1-0.5,2-0.9,3.1-1.3l-23.3-34.9c-9.4,4.5-18.3,9.5-26.6,15.1
		l-37-27c-9.9,7.6-19.1,15.8-27.7,24.5l23.3,38.9c-7.6,8.7-14.5,18-20.5,27.7l-44.7-9.6c-5.8,10.7-10.8,21.8-15,33.2l37.1,26.1
		c-3.5,11.3-6,22.9-7.5,34.7l-44.7,9.4c-0.9,11.9-0.9,24,0,36l44.6,8.8c1.5,11.8,4,23.6,7.6,35.2l-36.9,26.7
		c2.1,5.6,4.3,11.1,6.8,16.6c2.5,5.5,5.2,10.9,8,16.1l44.3-10.1c6.4,10.4,13.6,20,21.5,29l-22.8,39.3c8.5,8.6,17.6,16.5,27.1,23.8
		l36.5-27.4c9.8,6.6,20.1,12.3,30.9,17.1l17.6-36.7C189.4,379.9,158,350.4,139.9,310.6z"/>
</g>
<g>
	<path d="M271.7,287.9h10.9c6.5,0,8.9,2.6,8.9,7.6v3.8c0,4.9-2.6,7.5-9.1,7.5H277v9.1h-5.3V287.9z M282.3,292.6H277v9.6h5.3
		c3,0,3.9-1.1,3.9-3.4v-2.9C286.2,293.6,285.2,292.6,282.3,292.6z"/>
	<path d="M315.8,315.9l-6.4-9.2h-5v9.2H299v-28h11.5c6.5,0,8.9,2.6,8.9,7.6v3.7c0,3.4-1.3,5.7-4.2,6.8l6.9,10H315.8z M310.3,292.6
		h-6v9.5h6c2.9,0,3.8-1.1,3.8-3.4v-2.8C314.1,293.6,313.1,292.6,310.3,292.6z"/>
	<path d="M349.4,307.7c0,4.7-2.7,8.6-10.6,8.6c-7.9,0-10.6-3.9-10.6-8.6v-11.6c0-4.7,2.7-8.6,10.6-8.6c7.9,0,10.6,3.9,10.6,8.6
		V307.7z M333.5,307.4c0,2.6,1.3,4.2,5.3,4.2c3.9,0,5.3-1.6,5.3-4.2v-11c0-2.6-1.3-4.2-5.3-4.2c-3.9,0-5.3,1.6-5.3,4.2V307.4z"/>
	<path d="M362.8,307.3c0,2.7,1.2,4.3,4.9,4.3c1.4,0,2.9-0.1,4.3-0.3v-8.5h5v12.3c-2.9,0.8-6.4,1.3-9.4,1.3c-6.8,0-10.1-2.9-10.1-8.4
		V296c0-5.8,3.4-8.4,10.6-8.4c2.3,0,5.5,0.3,8,0.9l-0.6,4.6c-2.6-0.5-5.1-0.8-7.9-0.8c-3.7,0-4.9,1.5-4.9,4.4V307.3z"/>
	<path d="M402.6,315.9l-6.4-9.2h-5v9.2h-5.3v-28h11.5c6.5,0,8.9,2.6,8.9,7.6v3.7c0,3.4-1.3,5.7-4.2,6.8l6.9,10H402.6z M397.1,292.6
		h-6v9.5h6c2.9,0,3.8-1.1,3.8-3.4v-2.8C400.9,293.6,399.9,292.6,397.1,292.6z"/>
	<path d="M432.3,310.1h-10.4l-1.8,5.8h-5.5l8.8-28h7.4l8.8,28h-5.5L432.3,310.1z M423.2,305.5h7.7l-3.8-13.2L423.2,305.5z"/>
	<path d="M464.4,312.3h-6.7l-5.2-14.5l-0.5,18.1h-5.4l1.3-28h5.9l7.2,19.9l7.2-19.9h5.9l1.3,28H470l-0.5-18.1L464.4,312.3z"/>
	<path d="M492,316.3c-3.2,0-6.9-0.8-8.7-1.7l0.9-4.2c2.6,0.8,5.1,1.3,7.9,1.3c3.8,0,4.5-0.8,4.5-3.5c0-3.1-0.1-3.4-5.1-4.5
		c-6.8-1.5-7.7-2.8-7.7-8.7c0-5.1,2.3-7.6,9.4-7.6c2.4,0,5.4,0.3,8.1,0.9l-0.6,4.5c-2.3-0.5-5-0.8-7.5-0.8c-3.6,0-4.2,0.8-4.2,3.2
		c0,3.2,0.1,3.3,4.9,4.5c7.5,1.8,7.9,3,7.9,8.6C501.9,313.6,500.3,316.3,492,316.3z"/>
	<path d="M515.6,315.9h-5.3v-28h5.3V315.9z M522.2,301.8l9.4,14.2h-6.1l-9.2-14.2l8.7-13.8h6L522.2,301.8z"/>
	<path d="M555.3,310.1H545l-1.8,5.8h-5.5l8.8-28h7.4l8.8,28h-5.5L555.3,310.1z M546.3,305.5h7.7l-3.8-13.2L546.3,305.5z"/>
	<path d="M598.8,315.9l-6.4-9.2h-5v9.2H582v-28h11.5c6.5,0,8.9,2.6,8.9,7.6v3.7c0,3.4-1.3,5.7-4.2,6.8l6.9,10H598.8z M593.3,292.6
		h-6v9.5h6c2.9,0,3.8-1.1,3.8-3.4v-2.8C597.1,293.6,596.1,292.6,593.3,292.6z"/>
	<path d="M612.5,287.9h17.1v4.7h-11.8v6.8h10.9v4.7h-10.9v7.2h11.8v4.7h-17.1V287.9z"/>
	<path d="M645.8,316.3c-3.2,0-6.9-0.8-8.7-1.7l0.9-4.2c2.6,0.8,5.1,1.3,7.9,1.3c3.8,0,4.5-0.8,4.5-3.5c0-3.1-0.1-3.4-5.1-4.5
		c-6.8-1.5-7.7-2.8-7.7-8.7c0-5.1,2.3-7.6,9.4-7.6c2.4,0,5.4,0.3,8.1,0.9l-0.6,4.5c-2.3-0.5-5-0.8-7.5-0.8c-3.6,0-4.2,0.8-4.2,3.2
		c0,3.2,0.1,3.3,4.9,4.5c7.5,1.8,7.9,3,7.9,8.6C655.6,313.6,654.1,316.3,645.8,316.3z M642.9,280c1.6,0.8,2.5,1.3,3.9,2.1
		c1.4-0.8,2.3-1.3,3.9-2.1l1.4,2.4c-2,1.3-3.4,2.4-5.3,3.8c-1.9-1.5-3.4-2.5-5.3-3.8L642.9,280z"/>
	<path d="M664,287.9h17.1v4.7h-11.8v6.8h10.9v4.7h-10.9v7.2h11.8v4.7H664V287.9z"/>
	<path d="M694.9,294.7v21.2h-5.2v-28h7.1l10.6,21.3v-21.3h5.2v28h-7.1L694.9,294.7z"/>
	<path d="M727.4,287.9v28.4c0,2.9-1.2,4.3-5.7,8.2l-3.2-3.6c3.2-3.1,3.6-3.3,3.6-5.1v-28H727.4z"/>
	<path d="M752.2,310.1h-10.4l-1.8,5.8h-5.5l8.8-28h7.4l8.8,28H754L752.2,310.1z M743.1,305.5h7.7l-3.8-13.2L743.1,305.5z"/>
</g>
</svg>
